<?xml version="1.0" standalone="no"?>
<!DOCTYPE svg PUBLIC "-//W3C//DTD SVG 20010904//EN"
 "http://www.w3.org/TR/2001/REC-SVG-20010904/DTD/svg10.dtd">
<svg version="1.0" xmlns="http://www.w3.org/2000/svg"
 width="75.000000pt" height="75.000000pt" viewBox="0 0 75.000000 75.000000"
 preserveAspectRatio="xMidYMid meet">
<metadata>
Created by potrace 1.14, written by Peter Selinger 2001-2017
</metadata>
<g transform="translate(0.000000,75.000000) scale(0.100000,-0.100000)"
fill="#000000" stroke="none">
<path d="M60 371 l0 -219 45 1 44 1 3 85 3 86 53 6 c89 11 122 46 122 130 0
94 -50 129 -184 129 l-86 0 0 -219z m154 156 c11 -8 20 -31 23 -59 4 -38 2
-49 -16 -67 -13 -13 -32 -21 -44 -19 -20 3 -22 10 -25 67 -2 35 -1 70 2 77 7
18 37 18 60 1z"/>
<path d="M362 373 l3 -218 90 1 c107 1 154 15 196 57 44 43 62 92 62 162 -1
100 -56 181 -141 205 -20 5 -76 10 -125 10 l-87 0 2 -217z m211 135 c45 -51
58 -123 36 -200 -16 -60 -47 -89 -101 -95 l-47 -5 -3 162 c-2 89 -1 164 2 167
13 13 94 -9 113 -29z"/>
</g>
</svg>
